<svg xmlns="http://www.w3.org/2000/svg" width="800" height="600" viewBox="0 0 800 600">
  <defs>
    <linearGradient id="bg" x1="0%" y1="0%" x2="100%" y2="100%">
      <stop offset="0%" style="stop-color:#14532D"/>
      <stop offset="50%" style="stop-color:#166534"/>
      <stop offset="100%" style="stop-color:#15803D"/>
    </linearGradient>
  </defs>
  <rect width="800" height="600" fill="url(#bg)"/>
  <!-- map grid -->
  <line x1="0" y1="80" x2="800" y2="80" stroke="rgba(255,255,255,0.06)" stroke-width="1"/>
  <line x1="0" y1="160" x2="800" y2="160" stroke="rgba(255,255,255,0.06)" stroke-width="1"/>
  <line x1="0" y1="240" x2="800" y2="240" stroke="rgba(255,255,255,0.06)" stroke-width="1"/>
  <line x1="0" y1="320" x2="800" y2="320" stroke="rgba(255,255,255,0.06)" stroke-width="1"/>
  <line x1="133" y1="0" x2="133" y2="400" stroke="rgba(255,255,255,0.06)" stroke-width="1"/>
  <line x1="266" y1="0" x2="266" y2="400" stroke="rgba(255,255,255,0.06)" stroke-width="1"/>
  <line x1="400" y1="0" x2="400" y2="400" stroke="rgba(255,255,255,0.06)" stroke-width="1"/>
  <line x1="533" y1="0" x2="533" y2="400" stroke="rgba(255,255,255,0.06)" stroke-width="1"/>
  <line x1="666" y1="0" x2="666" y2="400" stroke="rgba(255,255,255,0.06)" stroke-width="1"/>
  <!-- map region blobs -->
  <ellipse cx="300" cy="190" rx="200" ry="140" fill="rgba(34,197,94,0.2)" stroke="rgba(34,197,94,0.4)" stroke-width="1"/>
  <ellipse cx="520" cy="150" rx="140" ry="100" fill="rgba(74,222,128,0.15)" stroke="rgba(74,222,128,0.3)" stroke-width="1"/>
  <!-- pins -->
  <circle cx="280" cy="160" r="10" fill="rgba(255,255,255,0.9)"/>
  <circle cx="280" cy="160" r="5" fill="#15803D"/>
  <circle cx="340" cy="200" r="10" fill="rgba(255,255,255,0.9)"/>
  <circle cx="340" cy="200" r="5" fill="#15803D"/>
  <circle cx="200" cy="220" r="10" fill="rgba(255,255,255,0.9)"/>
  <circle cx="200" cy="220" r="5" fill="#15803D"/>
  <circle cx="480" cy="130" r="10" fill="rgba(255,255,255,0.9)"/>
  <circle cx="480" cy="130" r="5" fill="#15803D"/>
  <circle cx="560" cy="170" r="10" fill="rgba(255,255,255,0.9)"/>
  <circle cx="560" cy="170" r="5" fill="#15803D"/>
  <!-- sidebar -->
  <rect x="620" y="60" width="160" height="240" rx="12" fill="rgba(0,0,0,0.3)"/>
  <rect x="636" y="80" width="128" height="8" rx="4" fill="rgba(255,255,255,0.5)"/>
  <rect x="636" y="100" width="100" height="6" rx="3" fill="rgba(255,255,255,0.25)"/>
  <rect x="636" y="120" width="128" height="60" rx="6" fill="rgba(34,197,94,0.2)"/>
  <text x="700" y="156" font-family="system-ui,sans-serif" font-size="20" font-weight="700" fill="white" text-anchor="middle">47</text>
  <text x="700" y="172" font-family="system-ui,sans-serif" font-size="9" fill="rgba(255,255,255,0.6)" text-anchor="middle">Fundaciones</text>
  <rect x="636" y="194" width="128" height="6" rx="3" fill="rgba(255,255,255,0.15)"/>
  <rect x="636" y="208" width="100" height="6" rx="3" fill="rgba(255,255,255,0.1)"/>
  <rect x="636" y="222" width="110" height="6" rx="3" fill="rgba(255,255,255,0.1)"/>
  <!-- title -->
  <text x="400" y="430" font-family="system-ui, sans-serif" font-size="36" font-weight="700" fill="white" text-anchor="middle">ConQuito Fundaciones</text>
  <text x="400" y="472" font-family="system-ui, sans-serif" font-size="18" fill="rgba(255,255,255,0.65)" text-anchor="middle">Visualizador Geográfico Interactivo</text>
  <text x="400" y="510" font-family="system-ui, sans-serif" font-size="13" fill="rgba(255,255,255,0.4)" text-anchor="middle">JavaScript · Leaflet · Charts.js</text>
</svg>
