<svg xmlns="http://www.w3.org/2000/svg" width="800" height="600" viewBox="0 0 800 600">
  <defs>
    <linearGradient id="bg" x1="0%" y1="0%" x2="100%" y2="100%">
      <stop offset="0%" style="stop-color:#0F172A"/>
      <stop offset="50%" style="stop-color:#1E3A5F"/>
      <stop offset="100%" style="stop-color:#1D4ED8"/>
    </linearGradient>
  </defs>
  <rect width="800" height="600" fill="url(#bg)"/>
  <!-- grid lines -->
  <line x1="0" y1="100" x2="800" y2="100" stroke="rgba(255,255,255,0.04)" stroke-width="1"/>
  <line x1="0" y1="200" x2="800" y2="200" stroke="rgba(255,255,255,0.04)" stroke-width="1"/>
  <line x1="0" y1="300" x2="800" y2="300" stroke="rgba(255,255,255,0.04)" stroke-width="1"/>
  <line x1="200" y1="0" x2="200" y2="400" stroke="rgba(255,255,255,0.04)" stroke-width="1"/>
  <line x1="400" y1="0" x2="400" y2="400" stroke="rgba(255,255,255,0.04)" stroke-width="1"/>
  <line x1="600" y1="0" x2="600" y2="400" stroke="rgba(255,255,255,0.04)" stroke-width="1"/>
  <!-- chat bubbles -->
  <rect x="60" y="60" width="340" height="70" rx="18" fill="rgba(59,130,246,0.3)" stroke="rgba(59,130,246,0.5)" stroke-width="1"/>
  <text x="80" y="102" font-family="system-ui, sans-serif" font-size="14" fill="rgba(255,255,255,0.8)">¿Cuál es el balance total de socios?</text>
  <rect x="400" y="150" width="340" height="70" rx="18" fill="rgba(30,58,138,0.6)" stroke="rgba(99,179,237,0.3)" stroke-width="1"/>
  <text x="420" y="192" font-family="system-ui, sans-serif" font-size="14" fill="rgba(255,255,255,0.8)">El balance total es $1,247,830...</text>
  <!-- chart bars -->
  <rect x="60" y="260" width="660" height="110" rx="12" fill="rgba(255,255,255,0.04)" stroke="rgba(255,255,255,0.08)" stroke-width="1"/>
  <rect x="100" y="310" width="40" height="44" rx="4" fill="rgba(59,130,246,0.7)"/>
  <rect x="160" y="290" width="40" height="64" rx="4" fill="rgba(59,130,246,0.85)"/>
  <rect x="220" y="300" width="40" height="54" rx="4" fill="rgba(59,130,246,0.7)"/>
  <rect x="280" y="280" width="40" height="74" rx="4" fill="#3B82F6"/>
  <rect x="340" y="295" width="40" height="59" rx="4" fill="rgba(59,130,246,0.8)"/>
  <rect x="400" y="285" width="40" height="69" rx="4" fill="rgba(59,130,246,0.9)"/>
  <rect x="460" y="275" width="40" height="79" rx="4" fill="#3B82F6"/>
  <rect x="520" y="268" width="40" height="86" rx="4" fill="rgba(99,179,237,0.95)"/>
  <!-- title -->
  <text x="400" y="430" font-family="system-ui, sans-serif" font-size="42" font-weight="700" fill="white" text-anchor="middle">AnaOS</text>
  <text x="400" y="472" font-family="system-ui, sans-serif" font-size="18" fill="rgba(255,255,255,0.65)" text-anchor="middle">Asistente Financiero con IA</text>
  <text x="400" y="510" font-family="system-ui, sans-serif" font-size="13" fill="rgba(255,255,255,0.4)" text-anchor="middle">TypeScript · React · OpenAI · PostgreSQL</text>
</svg>
