<svg xmlns="http://www.w3.org/2000/svg" width="800" height="600" viewBox="0 0 800 600">
  <defs>
    <linearGradient id="bg" x1="0%" y1="0%" x2="100%" y2="100%">
      <stop offset="0%" style="stop-color:#C45B2E"/>
      <stop offset="50%" style="stop-color:#E8824A"/>
      <stop offset="100%" style="stop-color:#F4A261"/>
    </linearGradient>
    <linearGradient id="card" x1="0%" y1="0%" x2="0%" y2="100%">
      <stop offset="0%" style="stop-color:rgba(255,255,255,0.18)"/>
      <stop offset="100%" style="stop-color:rgba(255,255,255,0.05)"/>
    </linearGradient>
  </defs>
  <rect width="800" height="600" fill="url(#bg)"/>
  <!-- decorative circles -->
  <circle cx="650" cy="80" r="160" fill="rgba(255,255,255,0.06)"/>
  <circle cx="100" cy="520" r="200" fill="rgba(255,255,255,0.04)"/>
  <!-- UI mock cards -->
  <rect x="60" y="80" width="300" height="180" rx="16" fill="url(#card)" stroke="rgba(255,255,255,0.2)" stroke-width="1"/>
  <rect x="80" y="104" width="80" height="80" rx="10" fill="rgba(255,255,255,0.15)"/>
  <rect x="176" y="108" width="140" height="12" rx="6" fill="rgba(255,255,255,0.6)"/>
  <rect x="176" y="128" width="100" height="8" rx="4" fill="rgba(255,255,255,0.35)"/>
  <rect x="176" y="148" width="120" height="8" rx="4" fill="rgba(255,255,255,0.25)"/>
  <rect x="80" y="204" width="60" height="28" rx="8" fill="rgba(255,255,255,0.3)"/>
  <rect x="152" y="204" width="60" height="28" rx="8" fill="rgba(255,255,255,0.15)"/>

  <rect x="440" y="60" width="300" height="220" rx="16" fill="url(#card)" stroke="rgba(255,255,255,0.2)" stroke-width="1"/>
  <rect x="460" y="84" width="260" height="120" rx="10" fill="rgba(255,255,255,0.1)"/>
  <rect x="460" y="220" width="180" height="10" rx="5" fill="rgba(255,255,255,0.5)"/>
  <rect x="460" y="238" width="130" height="8" rx="4" fill="rgba(255,255,255,0.3)"/>

  <rect x="60" y="300" width="680" height="60" rx="12" fill="rgba(255,255,255,0.1)" stroke="rgba(255,255,255,0.15)" stroke-width="1"/>
  <rect x="80" y="316" width="120" height="28" rx="6" fill="rgba(255,255,255,0.25)"/>
  <rect x="216" y="316" width="90" height="28" rx="6" fill="rgba(255,255,255,0.12)"/>
  <rect x="320" y="316" width="90" height="28" rx="6" fill="rgba(255,255,255,0.12)"/>

  <!-- title -->
  <text x="400" y="430" font-family="system-ui, sans-serif" font-size="42" font-weight="700" fill="white" text-anchor="middle" opacity="0.95">Ideancestral</text>
  <text x="400" y="472" font-family="system-ui, sans-serif" font-size="18" fill="rgba(255,255,255,0.75)" text-anchor="middle">Catálogo Digital de Artesanías</text>
  <text x="400" y="510" font-family="system-ui, sans-serif" font-size="13" fill="rgba(255,255,255,0.5)" text-anchor="middle">Vue.js · JavaScript · CSS3</text>
</svg>
